<svg width="64" height="64" viewBox="-8 -8 64 64" fill="none" xmlns="http://www.w3.org/2000/svg">
<path d="M32.2528 12.46C32.9848 13.192 34.1708 13.194 34.9028 12.46L37.5108 9.852C38.2418 9.12 38.2398 7.934 37.5108 7.201L30.9278 0.619999C30.1978 -0.112001 29.0118 -0.112001 28.2798 0.619999L25.6708 3.228C24.9408 3.96 24.9408 5.146 25.6708 5.876L32.2528 12.46Z" fill="url(#paint0_linear_605_6340)"/>
<path d="M16.6669 28.338C17.3979 29.067 18.5839 29.067 19.3149 28.338L21.9239 25.728C22.6559 24.998 22.6559 23.811 21.9239 23.079L15.3409 16.496C14.6099 15.766 13.4239 15.764 12.6919 16.496L10.0839 19.104C9.35189 19.836 9.35389 21.022 10.0839 21.754L16.6669 28.338Z" fill="url(#paint1_linear_605_6340)"/>
<path d="M46.549 28.964L43.902 26.314C43.168 25.584 41.985 25.584 41.254 26.314L40.093 27.474L28.888 16.267L31.315 13.839L24.582 7.108L22.154 9.536L19.062 12.626L16.688 15L23.42 21.733L25.797 19.36L37 30.565L35.952 31.614C35.22 32.343 35.218 33.53 35.952 34.262L38.599 36.91C39.333 37.644 40.518 37.644 41.249 36.91L46.548 31.613C47.281 30.88 47.281 29.696 46.549 28.964Z" fill="url(#paint2_linear_605_6340)"/>
<path d="M26.9779 37.013C26.9779 35.814 26.0059 34.84 24.8049 34.84H7.83688C6.63688 34.84 5.66388 35.814 5.66388 37.013V40.54H0.900879V47.929H31.4589V40.54H26.9779V37.013Z" fill="url(#paint3_linear_605_6340)"/>
<defs>
<linearGradient id="paint0_linear_605_6340" x1="31.5908" y1="0.0709991" x2="31.5908" y2="13.0097" gradientUnits="userSpaceOnUse">
<stop stop-color="#EF8080"/>
<stop offset="1" stop-color="#F0145A"/>
</linearGradient>
<linearGradient id="paint1_linear_605_6340" x1="16.0043" y1="15.9478" x2="16.0043" y2="28.8848" gradientUnits="userSpaceOnUse">
<stop stop-color="#EF8080"/>
<stop offset="1" stop-color="#F0145A"/>
</linearGradient>
<linearGradient id="paint2_linear_605_6340" x1="31.8929" y1="7.108" x2="31.8929" y2="37.4605" gradientUnits="userSpaceOnUse">
<stop stop-color="#EF8080"/>
<stop offset="1" stop-color="#F0145A"/>
</linearGradient>
<linearGradient id="paint3_linear_605_6340" x1="16.1799" y1="34.84" x2="16.1799" y2="47.929" gradientUnits="userSpaceOnUse">
<stop stop-color="#EF8080"/>
<stop offset="1" stop-color="#F0145A"/>
</linearGradient>
</defs>
</svg>
