<?xml version="1.0" encoding="UTF-8"?>
<svg id="_Слой_2" data-name="Слой 2" xmlns="http://www.w3.org/2000/svg" viewBox="0 0 464.87 87.42">
  <defs>
    <style>
      .cls-1 {
        fill: #ffe900;
        fill-rule: evenodd;
      }
    </style>
  </defs>
  <g id="_Слой_1-2" data-name="Слой 1">
    <g>
      <path class="cls-1" d="m232.44,0l19.38,6.45c.23.08.38.3.36.54l-1.28,18.92c-.01.15.04.3.15.4l5.75,5.85c.19.19.2.5.03.71l-7.74,9.26c-.15.18-.39.24-.6.15l-4.56-1.86c-.27-.11-.58.02-.69.29,0,.02-.01.03-.02.05l-2.13,7.14c-.05.17-.18.3-.35.35l-8.15,2.5c-.1.03-.21.03-.31,0l-8.15-2.5c-.17-.05-.3-.18-.35-.35l-2.13-7.14c-.08-.28-.38-.44-.66-.35-.02,0-.03.01-.05.02l-4.56,1.86c-.21.09-.46.03-.6-.15l-7.74-9.26c-.17-.21-.16-.51.03-.71l5.75-5.85c.11-.11.16-.25.15-.4l-1.28-18.92c-.02-.24.13-.46.36-.54l19.38-6.45Zm-10.72,24.4c-2.82,0-5.12,2.29-5.12,5.12s2.29,5.12,5.12,5.12,5.12-2.29,5.12-5.12-2.29-5.12-5.12-5.12Zm21.44,0c-2.82,0-5.12,2.29-5.12,5.12s2.29,5.12,5.12,5.12,5.12-2.29,5.12-5.12-2.29-5.12-5.12-5.12Zm-10.94,10.65l-2.91,4.25c-.12.17-.08.41.08.53l1.07.84c.16.13.39.11.53-.04l1.31-1.43c.07-.08.19-.08.26-.01,0,0,0,0,.01.01l1.31,1.43c.14.15.37.17.53.04l1.07-.84c.16-.13.2-.36.08-.53l-2.91-4.25c-.08-.12-.25-.16-.38-.07-.03.02-.05.04-.07.07h0Zm-22.97-13.58c.03.39-.27.72-.65.75-.02,0-.03,0-.05,0H12.65c-.21,0-.4-.09-.54-.25L.16,7.76c-.25-.3-.21-.74.09-.99.13-.11.29-.16.45-.16h206.88c.37,0,.68.29.7.66,0,0,0,.02,0,.03l.96,14.18Zm.03,19.78c.25.3.21.74-.09.99-.13.11-.29.16-.45.16h-54.13c-.21,0-.4-.09-.54-.25l-4.46-5.3c-.25-.3-.21-.74.09-.99.13-.11.29-.16.45-.16h54.44s.06.01.08.04l4.61,5.52Zm-7.49-9.01c-.13.13-.31.21-.5.21H21.26c-.21,0-.4-.09-.54-.25l-4.46-5.3c-.25-.3-.21-.74.08-.99.13-.11.29-.17.45-.17h189.69c.39,0,.7.32.7.7,0,.18-.07.36-.2.49l-5.21,5.3Zm-114.38,4.61c-.25-.3-.21-.74.08-.99.13-.11.29-.17.45-.17h54.24c.21,0,.4.09.54.25l4.46,5.3c.25.3.21.74-.09.99-.13.11-.29.16-.45.16h-54.24c-.21,0-.4-.09-.54-.25l-4.46-5.3Zm168.23-15.39l.96-14.18s0-.02,0-.03c.02-.37.33-.66.7-.66h206.88c.39,0,.7.32.7.7,0,.16-.06.32-.16.45l-11.95,14.21c-.13.16-.33.25-.54.25h-195.89c-.39,0-.7-.31-.7-.7,0-.02,0-.03,0-.05h0Zm-.03,19.78l4.61-5.52s.05-.04.08-.04h54.44c.39,0,.7.31.7.7,0,.17-.06.33-.17.45l-4.46,5.3c-.13.16-.33.25-.54.25h-54.13c-.39,0-.7-.31-.7-.7,0-.16.06-.32.16-.45h0Zm7.49-9.01l-5.21-5.3c-.27-.28-.27-.72,0-.99.13-.13.31-.2.49-.2h189.69c.39,0,.7.31.7.7,0,.17-.06.33-.17.45l-4.46,5.3c-.13.16-.33.25-.54.25h-180.02c-.19,0-.37-.08-.5-.21Zm114.38,4.61l-4.46,5.3c-.13.16-.33.25-.54.25h-54.24c-.39,0-.7-.31-.7-.7,0-.17.06-.33.17-.45l4.46-5.3c.13-.16.33-.25.54-.25h54.24c.39,0,.7.31.7.7,0,.17-.06.33-.17.45Z"/>
      <polygon class="cls-1" points="297.7 48.95 297.7 68.05 329.08 68.05 329.96 68.41 330.33 69.3 330.33 86.17 329.96 87.05 329.08 87.42 135.72 87.42 134.84 87.05 134.47 86.17 134.47 69.3 134.84 68.41 135.72 68.05 167.1 68.05 167.1 48.95 215.95 48.95 219.77 53.85 219.77 68.05 245.03 68.05 245.03 53.85 248.85 48.95 297.7 48.95"/>
    </g>
  </g>
</svg>